<?xml version="1.0" standalone="no"?>
<!DOCTYPE svg PUBLIC "-//W3C//DTD SVG 20010904//EN"
 "http://www.w3.org/TR/2001/REC-SVG-20010904/DTD/svg10.dtd">
<svg version="1.0" xmlns="http://www.w3.org/2000/svg"
 width="140.000000pt" height="140.000000pt" viewBox="0 0 140.000000 140.000000"
 preserveAspectRatio="xMidYMid meet">
<metadata>
Created by potrace 1.14, written by Peter Selinger 2001-2017
</metadata>
<g transform="translate(0.000000,140.000000) scale(0.100000,-0.100000)"
fill="#000000" stroke="none">
<path d="M605 1384 c-262 -54 -435 -216 -501 -469 -25 -96 -25 -332 0 -424 34
-124 109 -252 189 -321 82 -70 225 -135 342 -154 80 -13 276 -16 323 -5 158
39 273 142 333 298 10 27 20 60 23 73 3 13 8 38 12 56 6 31 5 34 -17 30 -20
-2 -27 -13 -41 -67 -62 -229 -224 -357 -442 -350 -191 6 -298 107 -357 339
-28 108 -34 159 -34 305 0 146 6 196 34 307 41 160 113 278 195 320 86 44 253
31 353 -27 119 -71 218 -237 237 -403 7 -54 11 -61 34 -55 17 4 18 22 18 269
0 259 -1 264 -21 264 -14 0 -25 -12 -37 -40 -25 -60 -49 -61 -165 -6 -54 25
-126 52 -161 60 -76 17 -233 17 -317 0z"/>
</g>
</svg>
